<svg width="200" height="200" viewBox="0 0 200 200" fill="none" xmlns="http://www.w3.org/2000/svg">
<path fill-rule="evenodd" clip-rule="evenodd" d="M49.6094 145.312C116.272 145.312 170.313 95.6441 170.313 34.375C170.313 32.4861 170.261 30.6082 170.16 28.7425C188.58 46.8804 200 72.1065 200 100C200 155.228 155.228 200 100 200C58.387 200 22.7105 174.582 7.64905 138.426C20.7181 142.879 34.8546 145.312 49.6094 145.312Z" fill="#3EC855"/>
<path fill-rule="evenodd" clip-rule="evenodd" d="M38.5754 178.917C15.0985 160.618 0 132.072 0 100C0 44.7715 44.7715 0 100 0C134.047 0 164.12 17.0154 182.18 43.0065C162.594 111.635 107.364 164.528 38.5754 178.917Z" fill="#2F9E41"/>
<path d="M70.752 56.2568H134.534V68.769H83.2642V93.7935H127.026V106.306H83.2642V131.269H134.534V143.781H70.752V56.2568Z" fill="#2F9E41"/>
<path d="M70.752 56.2568V51.2568H65.752V56.2568H70.752ZM134.534 56.2568H139.534V51.2568H134.534V56.2568ZM134.534 68.769V73.769H139.534V68.769H134.534ZM83.2642 68.769V63.769H78.2642V68.769H83.2642ZM83.2642 93.7935H78.2642V98.7935H83.2642V93.7935ZM127.026 93.7935H132.026V88.7935H127.026V93.7935ZM127.026 106.306V111.306H132.026V106.306H127.026ZM83.2642 106.306V101.306H78.2642V106.306H83.2642ZM83.2642 131.269H78.2642V136.269H83.2642V131.269ZM134.534 131.269H139.534V126.269H134.534V131.269ZM134.534 143.781V148.781H139.534V143.781H134.534ZM70.752 143.781H65.752V148.781H70.752V143.781ZM70.752 61.2568H134.534V51.2568H70.752V61.2568ZM129.534 56.2568V68.769H139.534V56.2568H129.534ZM134.534 63.769H83.2642V73.769H134.534V63.769ZM78.2642 68.769V93.7935H88.2642V68.769H78.2642ZM83.2642 98.7935H127.026V88.7935H83.2642V98.7935ZM122.026 93.7935V106.306H132.026V93.7935H122.026ZM127.026 101.306H83.2642V111.306H127.026V101.306ZM78.2642 106.306V131.269H88.2642V106.306H78.2642ZM83.2642 136.269H134.534V126.269H83.2642V136.269ZM129.534 131.269V143.781H139.534V131.269H129.534ZM134.534 138.781H70.752V148.781H134.534V138.781ZM75.752 143.781V56.2568H65.752V143.781H75.752Z" fill="white"/>
</svg>
